<?xml version="1.0" standalone="no"?>
<!DOCTYPE svg PUBLIC "-//W3C//DTD SVG 20010904//EN"
 "http://www.w3.org/TR/2001/REC-SVG-20010904/DTD/svg10.dtd">
<svg version="1.0" xmlns="http://www.w3.org/2000/svg"
 width="128.000000pt" height="128.000000pt" viewBox="0 0 128.000000 128.000000"
 preserveAspectRatio="xMidYMid meet">

<g transform="translate(0.000000,128.000000) scale(0.100000,-0.100000)"
fill="#fff" stroke="none">
<path d="M360 1240 c-11 -11 -20 -24 -20 -30 0 -5 -16 -10 -36 -10 -67 0 -117
-22 -169 -75 -47 -46 -75 -102 -75 -148 0 -10 -11 -17 -27 -19 l-28 -3 0 -465
0 -465 465 0 465 0 3 47 3 47 57 3 57 3 3 47 3 47 57 3 57 3 3 48 c3 45 5 47
33 47 16 0 38 9 49 20 19 19 20 33 20 450 0 417 -1 431 -20 450 -19 19 -33 20
-450 20 -417 0 -431 -1 -450 -20z m875 -450 l0 -425 -425 0 -425 0 -3 188 c-2
165 -1 187 13 187 28 0 120 101 133 146 28 95 8 168 -65 242 -28 28 -59 52
-67 52 -16 0 -22 21 -9 33 3 4 196 6 427 5 l421 -3 0 -425z m-825 336 c59 -39
85 -89 85 -166 0 -78 -26 -127 -88 -168 -56 -37 -153 -39 -210 -3 -76 47 -111
140 -88 229 14 51 75 117 123 131 53 16 135 6 178 -23z m-337 -242 c6 -16 18
-41 28 -55 17 -25 19 -55 21 -365 l3 -339 388 -3 387 -2 0 -30 0 -30 -430 0
-430 0 0 431 c0 328 3 430 12 427 6 -2 16 -17 21 -34z m134 -143 l33 -13 2
-251 3 -252 388 -3 387 -2 0 -30 0 -30 -430 0 -430 0 0 301 c0 165 3 299 8
297 4 -3 22 -10 39 -17z m133 -201 c0 -167 1 -181 20 -200 19 -19 33 -20 400
-20 l380 0 0 -30 0 -30 -430 0 -430 0 0 230 0 230 30 0 30 0 0 -180z"/>
<path d="M1060 1140 c0 -13 7 -20 20 -20 13 0 20 7 20 20 0 13 -7 20 -20 20
-13 0 -20 -7 -20 -20z"/>
<path d="M1140 1140 c0 -13 7 -20 20 -20 13 0 20 7 20 20 0 13 -7 20 -20 20
-13 0 -20 -7 -20 -20z"/>
<path d="M829 1105 c-19 -10 -28 -25 -33 -55 -9 -55 -38 -67 -82 -33 -70 53
-144 -20 -91 -90 34 -45 22 -74 -33 -83 -31 -5 -44 -13 -56 -35 -13 -26 -13
-32 0 -58 12 -22 25 -30 56 -35 55 -9 67 -38 33 -82 -53 -70 20 -144 90 -91
45 34 74 22 83 -33 5 -32 13 -44 36 -56 44 -23 80 -2 91 54 11 57 39 69 84 35
70 -53 143 21 90 91 -34 43 -22 72 33 81 31 5 44 14 55 36 14 26 14 32 1 58
-12 22 -25 30 -56 35 -55 9 -67 38 -33 83 53 70 -21 143 -91 90 -44 -34 -73
-22 -82 32 -9 59 -48 82 -95 56z m51 -51 c6 -14 10 -36 10 -49 0 -18 9 -27 45
-40 l45 -18 36 28 c32 25 37 26 51 12 14 -14 13 -19 -12 -51 -28 -36 -28 -36
-11 -80 15 -40 20 -44 58 -49 22 -3 45 -10 51 -16 17 -17 -4 -32 -51 -38 -38
-5 -43 -9 -58 -49 -17 -44 -17 -44 11 -80 25 -32 26 -37 12 -51 -14 -14 -19
-13 -51 12 -36 28 -36 28 -80 11 -40 -15 -44 -20 -49 -58 -10 -76 -44 -76 -54
0 -5 38 -9 43 -49 58 -44 17 -44 17 -80 -11 -32 -25 -37 -26 -51 -12 -14 14
-13 19 12 51 28 36 28 36 11 80 -15 40 -20 44 -58 49 -77 10 -76 42 2 55 40 7
45 11 58 50 13 41 13 44 -13 78 -25 32 -26 37 -12 51 14 14 19 13 51 -12 l36
-28 45 18 c36 13 45 22 45 40 0 32 17 75 30 75 6 0 15 -12 20 -26z"/>
<path d="M792 900 c-68 -42 -91 -124 -52 -188 41 -66 113 -88 179 -54 101 51
106 183 9 242 -18 11 -49 20 -68 20 -19 0 -50 -9 -68 -20z m117 -34 c67 -35
65 -143 -4 -174 -91 -41 -179 51 -131 137 26 47 84 63 135 37z"/>
<path d="M440 440 c0 -13 7 -20 20 -20 13 0 20 7 20 20 0 13 -7 20 -20 20 -13
0 -20 -7 -20 -20z"/>
<path d="M520 440 c0 -13 7 -20 20 -20 13 0 20 7 20 20 0 13 -7 20 -20 20 -13
0 -20 -7 -20 -20z"/>
<path d="M170 995 l-34 -35 34 -35 c26 -27 36 -32 47 -23 11 9 10 15 -8 35
l-22 23 22 24 c21 22 22 46 2 46 -4 0 -22 -16 -41 -35z"/>
<path d="M375 1019 c-4 -6 3 -21 16 -35 l22 -24 -22 -23 c-18 -20 -19 -26 -8
-35 11 -9 21 -4 47 23 l34 35 -34 35 c-36 37 -45 41 -55 24z"/>
<path d="M295 1008 c-6 -21 -35 -121 -35 -125 0 -2 9 -3 20 -3 15 0 23 13 38
63 10 34 17 65 15 70 -7 12 -33 8 -38 -5z"/>
</g>
</svg>
