<?xml version="1.0" standalone="no"?>
<!DOCTYPE svg PUBLIC "-//W3C//DTD SVG 20010904//EN"
 "http://www.w3.org/TR/2001/REC-SVG-20010904/DTD/svg10.dtd">
<svg version="1.0" xmlns="http://www.w3.org/2000/svg"
 width="128.000000pt" height="128.000000pt" viewBox="0 0 128.000000 128.000000"
 preserveAspectRatio="xMidYMid meet">
<metadata>
Created by potrace 1.16, written by Peter Selinger 2001-2019
</metadata>
<g transform="translate(0.000000,128.000000) scale(0.100000,-0.100000)"
fill="#fff" stroke="none">
<path d="M543 1220 c-58 -11 -150 -43 -178 -63 -21 -16 -13 -37 14 -37 10 0
38 9 62 19 54 24 119 37 119 24 0 -6 -9 -18 -20 -28 -11 -10 -37 -44 -57 -76
l-38 -59 -100 0 -99 0 37 38 c42 43 48 72 16 72 -36 0 -134 -113 -181 -207
-24 -47 -49 -88 -58 -91 -8 -3 -25 -14 -37 -25 -22 -19 -23 -28 -23 -147 0
-119 1 -128 23 -147 12 -11 29 -22 37 -25 9 -3 35 -44 58 -92 73 -147 202
-253 367 -302 95 -28 240 -24 338 9 87 30 127 53 127 73 0 27 -23 25 -88 -4
-37 -17 -87 -34 -112 -38 l-45 -7 35 39 c19 21 49 60 65 86 l30 48 98 0 c53 0
97 -2 97 -4 0 -1 -13 -17 -30 -34 -30 -32 -32 -62 -3 -62 29 0 123 112 166
198 23 46 48 87 57 90 8 3 25 14 38 25 21 19 22 28 22 147 0 119 -1 128 -22
147 -13 11 -30 22 -38 25 -9 3 -35 44 -58 92 -72 144 -202 253 -359 299 -67
20 -195 28 -260 17z m332 -99 c44 -22 98 -58 120 -80 l39 -41 -99 0 -100 0
-30 48 c-16 26 -46 65 -65 86 l-35 39 45 -6 c25 -4 81 -25 125 -46z m-194 2
c40 -42 89 -106 89 -116 0 -4 -58 -7 -130 -7 -71 0 -130 3 -130 7 0 16 116
153 130 153 3 0 22 -17 41 -37z m-264 -175 c-4 -7 -16 -39 -29 -70 l-23 -58
-118 0 -118 0 37 70 36 70 110 0 c84 0 109 -3 105 -12z m407 -35 c13 -27 27
-58 30 -70 l7 -23 -221 0 -221 0 7 23 c3 12 17 43 30 70 l24 47 160 0 160 0
24 -47z m290 -23 l37 -70 -118 0 -118 0 -23 58 c-13 31 -25 63 -29 70 -4 9 21
12 105 12 l110 0 36 -70z m110 -142 c12 -16 16 -47 16 -108 0 -61 -4 -92 -16
-108 l-15 -22 -569 0 -569 0 -15 22 c-22 31 -22 185 0 216 l15 22 569 0 569 0
15 -22z m-836 -346 c13 -31 25 -63 29 -69 4 -10 -21 -13 -105 -13 l-110 0 -36
70 -37 70 118 0 118 0 23 -58z m466 36 c-3 -13 -17 -44 -30 -70 l-24 -48 -160
0 -160 0 -24 48 c-13 26 -27 57 -30 70 l-7 22 221 0 221 0 -7 -22z m260 -48
l-36 -70 -110 0 c-84 0 -109 3 -105 13 4 6 16 38 29 69 l23 58 118 0 118 0
-37 -70z m-639 -158 c16 -26 43 -62 59 -80 16 -18 26 -35 23 -39 -11 -10 -101
18 -168 53 -36 19 -83 53 -104 74 l-39 40 99 0 100 0 30 -48z m295 42 c0 -11
-67 -98 -99 -128 l-31 -30 -31 30 c-32 30 -99 117 -99 128 0 3 59 6 130 6 72
0 130 -3 130 -6z"/>
<path d="M238 724 c-5 -5 22 -95 47 -156 11 -28 44 -22 56 10 5 15 12 34 15
42 4 10 12 0 22 -28 25 -65 49 -55 83 33 35 89 36 105 6 105 -19 0 -26 -8 -37
-42 l-13 -43 -19 43 c-12 28 -25 42 -38 42 -13 0 -23 -13 -33 -42 l-15 -43
-18 43 c-16 38 -39 54 -56 36z"/>
<path d="M516 721 c-4 -5 7 -45 23 -88 21 -59 33 -79 49 -81 15 -2 23 5 32 32
15 45 25 45 40 0 9 -27 17 -34 32 -32 16 2 28 22 49 81 30 82 30 97 -1 97 -13
0 -23 -13 -33 -42 l-14 -43 -18 43 c-11 27 -23 42 -35 42 -12 0 -24 -15 -35
-42 l-18 -43 -14 43 c-10 29 -20 42 -33 42 -10 0 -21 -4 -24 -9z"/>
<path d="M790 718 c0 -7 13 -47 28 -88 21 -58 33 -76 49 -78 17 -3 24 5 36 40
l15 43 11 -30 c6 -16 14 -36 16 -42 7 -19 42 -16 50 5 25 61 52 151 47 156
-17 18 -40 2 -56 -36 l-18 -43 -15 43 c-12 34 -19 42 -36 40 -13 -2 -24 -15
-31 -35 -17 -48 -23 -49 -37 -4 -10 33 -17 41 -36 41 -12 0 -23 -6 -23 -12z"/>
</g>
</svg>
