<?xml version="1.0" standalone="no"?>
<!DOCTYPE svg PUBLIC "-//W3C//DTD SVG 20010904//EN"
 "http://www.w3.org/TR/2001/REC-SVG-20010904/DTD/svg10.dtd">
<svg version="1.0" xmlns="http://www.w3.org/2000/svg"
 width="128.000000pt" height="128.000000pt" viewBox="0 0 128.000000 128.000000"
 preserveAspectRatio="xMidYMid meet">

<g transform="translate(0.000000,128.000000) scale(0.100000,-0.100000)"
fill="#fff" stroke="none">
<path d="M371 1226 c-47 -26 -50 -46 -51 -283 0 -194 -2 -223 -15 -223 -9 0
-27 11 -40 25 -31 30 -32 73 -5 108 39 49 12 67 -31 21 -36 -39 -34 -112 5
-153 16 -16 42 -33 57 -36 28 -6 29 -9 29 -66 0 -61 -14 -79 -25 -31 -8 38
-71 65 -107 46 -35 -18 -52 0 -34 35 19 35 -9 100 -46 108 -37 7 -37 39 0 46
38 8 65 72 46 109 -18 35 0 52 35 34 20 -11 30 -11 63 3 38 16 45 28 51 81 4
39 -32 40 -40 0 -8 -43 -41 -58 -77 -34 -27 17 -28 17 -63 -19 -36 -35 -36
-36 -19 -63 24 -35 9 -70 -33 -79 -29 -6 -31 -9 -31 -55 0 -46 2 -49 31 -55
42 -9 57 -44 33 -79 -17 -27 -17 -28 19 -63 35 -36 36 -36 63 -19 35 24 69 9
77 -33 5 -25 12 -31 32 -31 l25 0 0 -200 c0 -216 5 -242 51 -266 40 -20 498
-20 538 0 47 25 51 49 51 286 0 192 2 220 15 220 9 0 27 -11 40 -25 31 -30 32
-73 5 -108 -39 -49 -12 -67 31 -21 36 39 34 112 -5 153 -16 16 -42 33 -57 36
-28 6 -29 9 -29 66 0 61 14 79 25 32 8 -39 71 -66 107 -47 35 18 52 0 34 -35
-19 -35 9 -100 47 -108 36 -7 36 -39 0 -46 -38 -8 -66 -73 -47 -108 18 -35 1
-53 -34 -35 -21 11 -31 11 -63 -3 -31 -13 -40 -23 -48 -55 -11 -44 -7 -56 15
-56 8 0 17 13 21 31 8 42 42 57 77 33 27 -17 28 -17 63 19 36 35 36 36 19 63
-24 35 -9 70 33 79 29 6 31 9 31 55 0 46 -2 49 -31 55 -42 9 -57 44 -33 79 17
27 17 28 -19 63 -35 36 -36 36 -63 19 -35 -24 -69 -9 -77 33 -5 25 -12 31 -32
31 l-25 0 0 200 c0 216 -5 242 -51 266 -39 20 -502 20 -538 0z m529 -46 c19
-19 20 -33 20 -540 0 -507 -1 -521 -20 -540 -19 -19 -33 -20 -260 -20 -227 0
-241 1 -260 20 -19 19 -20 33 -20 540 0 507 1 521 20 540 19 19 33 20 260 20
227 0 241 -1 260 -20z"/>
<path d="M565 1150 c-14 -22 12 -31 81 -28 53 2 69 6 69 18 0 12 -16 16 -72
18 -45 2 -74 -1 -78 -8z"/>
<path d="M485 690 l-50 -50 53 -52 c41 -41 54 -50 64 -40 9 9 4 21 -27 52
l-39 40 38 39 c33 34 41 61 18 61 -4 0 -30 -23 -57 -50z"/>
<path d="M646 732 c-2 -4 -14 -45 -26 -91 -15 -59 -18 -87 -11 -94 7 -7 14 -7
20 -1 14 13 53 173 46 184 -7 12 -22 13 -29 2z"/>
<path d="M724 729 c-3 -6 11 -28 32 -50 l38 -39 -39 -40 c-31 -31 -36 -43 -27
-52 10 -10 23 -1 64 40 l53 52 -50 50 c-52 52 -60 57 -71 39z"/>
<path d="M1047 1074 c-14 -14 -7 -35 11 -32 9 2 17 10 17 17 0 16 -18 25 -28
15z"/>
<path d="M1047 994 c-14 -14 -7 -35 11 -32 9 2 17 10 17 17 0 16 -18 25 -28
15z"/>
<path d="M1047 914 c-14 -14 -7 -35 11 -32 9 2 17 10 17 17 0 16 -18 25 -28
15z"/>
<path d="M202 383 c2 -10 10 -18 18 -18 8 0 16 8 18 18 2 12 -3 17 -18 17 -15
0 -20 -5 -18 -17z"/>
<path d="M202 303 c2 -10 10 -18 18 -18 8 0 16 8 18 18 2 12 -3 17 -18 17 -15
0 -20 -5 -18 -17z"/>
<path d="M202 223 c2 -10 10 -18 18 -18 8 0 16 8 18 18 2 12 -3 17 -18 17 -15
0 -20 -5 -18 -17z"/>
</g>
</svg>
