<?xml version="1.0" standalone="no"?>
<!DOCTYPE svg PUBLIC "-//W3C//DTD SVG 20010904//EN"
 "http://www.w3.org/TR/2001/REC-SVG-20010904/DTD/svg10.dtd">
<svg version="1.0" xmlns="http://www.w3.org/2000/svg"
 width="128.000000pt" height="128.000000pt" viewBox="0 0 128.000000 128.000000"
 preserveAspectRatio="xMidYMid meet">

<g transform="translate(0.000000,128.000000) scale(0.100000,-0.100000)"
fill="#fff" stroke="none">
<path d="M220 1220 c-20 -20 -20 -31 -18 -358 3 -292 5 -337 18 -337 13 0 15
36 18 258 l2 257 400 0 400 0 2 -257 c3 -222 5 -258 18 -258 13 0 15 45 18
337 2 327 2 338 -18 358 -19 19 -32 20 -420 20 -388 0 -401 -1 -420 -20z m818
-82 l3 -58 -401 0 -400 0 0 53 c0 30 3 57 7 60 4 4 182 6 397 5 l391 -3 3 -57z"/>
<path d="M284 1149 c-10 -17 13 -36 27 -22 12 12 4 33 -11 33 -5 0 -12 -5 -16
-11z"/>
<path d="M364 1149 c-10 -17 13 -36 27 -22 12 12 4 33 -11 33 -5 0 -12 -5 -16
-11z"/>
<path d="M444 1149 c-10 -17 13 -36 27 -22 12 12 4 33 -11 33 -5 0 -12 -5 -16
-11z"/>
<path d="M725 1149 c-15 -24 16 -30 141 -27 107 3 129 6 129 18 0 12 -23 15
-132 18 -89 2 -134 -1 -138 -9z"/>
<path d="M61 1101 c-20 -20 -21 -31 -21 -401 0 -367 1 -381 20 -400 20 -20 33
-20 580 -20 547 0 560 0 580 20 19 19 20 33 20 400 0 370 -1 381 -21 401 -14
14 -30 19 -57 17 -49 -4 -51 -31 -2 -38 l35 -5 3 -297 2 -298 -560 0 -560 0 2
298 3 297 35 5 c49 7 47 34 -2 38 -27 2 -43 -3 -57 -17z m1137 -718 l-3 -58
-555 0 -555 0 -3 58 -3 57 561 0 561 0 -3 -57z"/>
<path d="M585 390 c-13 -21 11 -31 61 -28 36 2 49 7 49 18 0 19 -99 27 -110
10z"/>
<path d="M682 943 c-5 -10 -35 -96 -67 -191 -39 -119 -54 -177 -47 -184 6 -6
15 -7 20 -4 15 9 135 374 127 386 -9 15 -23 12 -33 -7z"/>
<path d="M406 824 c-36 -30 -66 -59 -66 -63 0 -11 128 -121 140 -121 5 0 12 5
16 12 5 7 -13 30 -47 60 l-54 48 54 48 c34 30 52 53 47 60 -12 19 -22 15 -90
-44z"/>
<path d="M784 868 c-4 -7 14 -30 47 -59 l54 -48 -54 -49 c-34 -30 -52 -53 -47
-60 4 -7 11 -12 16 -12 12 0 140 109 140 120 0 11 -128 120 -140 120 -5 0 -12
-5 -16 -12z"/>
<path d="M488 200 c-22 -32 -34 -40 -58 -40 -44 0 -72 -32 -68 -78 l3 -37 275
0 275 0 3 37 c4 46 -24 78 -68 78 -24 0 -36 8 -58 40 -15 21 -32 39 -39 40
-23 0 -25 -22 -4 -51 l22 -29 -131 0 -131 0 22 29 c21 29 19 51 -4 51 -7 -1
-24 -19 -39 -40z m390 -102 c3 -17 -13 -18 -237 -18 -194 0 -241 3 -241 13 0
8 3 17 7 21 4 3 110 5 237 4 211 -3 231 -5 234 -20z"/>
</g>
</svg>
